<svg width="80" height="80" viewBox="0 0 80 80" fill="none" xmlns="http://www.w3.org/2000/svg">
<g id="fa-solid:smile-wink">
<path id="Vector" d="M1.25 40C1.25 61.4062 18.5938 78.75 40 78.75C61.4062 78.75 78.75 61.4062 78.75 40C78.75 18.5938 61.4062 1.25 40 1.25C18.5938 1.25 1.25 18.5938 1.25 40ZM32.5 32.5C32.5 35.2656 30.2656 37.5 27.5 37.5C24.7344 37.5 22.5 35.2656 22.5 32.5C22.5 29.7344 24.7344 27.5 27.5 27.5C30.2656 27.5 32.5 29.7344 32.5 32.5ZM57.2656 35.0781C54.9531 33.0156 50.0469 33.0156 47.7344 35.0781L46.25 36.4062C44.9531 37.5625 42.875 36.4688 43.1562 34.7188C43.7812 30.7812 48.5 28.1406 52.5156 28.1406C56.5312 28.1406 61.25 30.7812 61.875 34.7188C62.1406 36.4531 60.0938 37.5781 58.7812 36.4062L57.2656 35.0781ZM25.9062 50.9062C29.4062 55.1094 34.5312 57.5 40 57.5C45.4688 57.5 50.5938 55.0937 54.0938 50.9062C56.2188 48.375 60.0469 51.5625 57.9375 54.1094C53.4844 59.4375 46.9531 62.5 40 62.5C33.0469 62.5 26.5156 59.4375 22.0625 54.0938C19.9531 51.5469 23.8125 48.3594 25.9062 50.9062Z" fill="white"/>
</g>
</svg>
