<svg width="80" height="80" viewBox="0 0 80 80" fill="none" xmlns="http://www.w3.org/2000/svg">
<g id="ic:round-discount">
<path id="Vector" d="M42.6333 70L10 37.3667V44.0333C10 45.8 10.7 47.5 11.9667 48.7333L37.9333 74.7C40.5333 77.3 44.7667 77.3 47.3667 74.7L68.0667 54C70.6667 51.4 70.6667 47.1667 68.0667 44.5667L42.6333 70Z" fill="white"/>
<path id="Subtract" fill-rule="evenodd" clip-rule="evenodd" d="M47.3667 58.0333C44.7667 60.6333 40.5333 60.6333 37.9333 58.0333L11.9667 32.0667C10.7 30.8333 10 29.1333 10 27.3667V6.66667C10 3 13 0 16.6667 0H37.3667C39.1359 0.00415109 40.8338 0.697673 42.1 1.93333L68.0667 27.9C70.6667 30.5 70.6667 34.7333 68.0667 37.3333L47.3667 58.0333ZM42.186 34.5C43.46 34.5 44.5 33.46 44.5 32.186C44.5 30.912 43.46 29.885 42.186 29.885C40.912 29.885 39.885 30.912 39.885 32.186C39.885 33.46 40.912 34.5 42.186 34.5ZM36.18 23.879C36.18 25.153 35.153 26.18 33.879 26.18C32.592 26.18 31.565 25.153 31.565 23.879C31.565 22.592 32.592 21.565 33.879 21.565C35.153 21.565 36.18 22.592 36.18 23.879ZM33.45 34.539L31.5 32.589L42.589 21.5L44.539 23.45L33.45 34.539ZM38 41C45.15 41 51 35.15 51 28C51 20.85 45.15 15 38 15C30.85 15 25 20.85 25 28C25 35.15 30.85 41 38 41ZM38 17.6C43.733 17.6 48.4 22.267 48.4 28C48.4 33.733 43.733 38.4 38 38.4C32.267 38.4 27.6 33.733 27.6 28C27.6 22.267 32.267 17.6 38 17.6Z" fill="white"/>
</g>
</svg>
