<svg width="80" height="80" viewBox="0 0 80 80" fill="none" xmlns="http://www.w3.org/2000/svg">
<g id="ri:service-fill">
<path id="Vector" d="M47.07 34.9333C46.4449 34.3084 45.5972 33.9574 44.7134 33.9574C43.8295 33.9574 42.9818 34.3084 42.3567 34.9333L40 37.2867C39.3851 37.9234 38.6494 38.4313 37.8361 38.7807C37.0227 39.1301 36.1479 39.314 35.2627 39.3217C34.3775 39.3294 33.4996 39.1607 32.6803 38.8255C31.861 38.4903 31.1167 37.9953 30.4907 37.3693C29.8648 36.7434 29.3698 35.999 29.0346 35.1797C28.6993 34.3604 28.5307 33.4825 28.5384 32.5973C28.546 31.7121 28.73 30.8373 29.0794 30.024C29.4287 29.2106 29.9366 28.475 30.5734 27.86L49.34 9.08668C53.7831 8.0761 58.4317 8.49201 62.6248 10.2753C66.818 12.0585 70.3422 15.1183 72.6963 19.0197C75.0505 22.921 76.1147 27.4652 75.7378 32.0061C75.3608 36.5471 73.5619 40.8536 70.5967 44.3133L63.57 51.43L47.07 34.9333ZM10.5367 14.8933C13.9859 11.4446 18.4974 9.25994 23.3419 8.69257C28.1864 8.12519 33.0806 9.20826 37.2334 11.7667L25.8567 23.1467C23.3927 25.6058 21.9881 28.931 21.9432 32.4119C21.8982 35.8927 23.2163 39.2532 25.616 41.7751C28.0156 44.2971 31.3064 45.7805 34.7852 45.9085C38.264 46.0365 41.6549 44.7988 44.2334 42.46L44.7134 42.0033L58.8567 56.1433L44.7134 70.2867C43.4632 71.5365 41.7678 72.2386 40 72.2386C38.2323 72.2386 36.5369 71.5365 35.2867 70.2867L10.5334 45.5333C6.47047 41.4701 4.18799 35.9594 4.18799 30.2133C4.18799 24.4673 6.4738 18.9566 10.5367 14.8933Z" fill="white"/>
</g>
</svg>
